<?xml version="1.0" encoding="UTF-8" standalone="no"?>
<!-- Created with Inkscape (http://www.inkscape.org/) -->
<svg id="svg3371" xmlns:rdf="http://www.w3.org/1999/02/22-rdf-syntax-ns#" xmlns="http://www.w3.org/2000/svg" xml:space="preserve" height="2500" viewBox="0 0 2500 2500" width="2500" version="1.1" xmlns:cc="http://creativecommons.org/ns#" xmlns:dc="http://purl.org/dc/elements/1.1/"><metadata id="metadata3377"><rdf:RDF><cc:Work rdf:about=""><dc:format>image/svg+xml</dc:format><dc:type rdf:resource="http://purl.org/dc/dcmitype/StillImage"/><dc:title/></cc:Work></rdf:RDF></metadata><defs id="defs3375"><clipPath id="clipPath3385" clipPathUnits="userSpaceOnUse"><path id="path3387" d="m0 2e3h2e3v-2e3h-2e3v2e3z"/></clipPath><clipPath id="clipPath3397" clipPathUnits="userSpaceOnUse"><path id="path3399" d="m1028.8 965.13h516.01v-318.66h-516.01v318.66z"/></clipPath><clipPath id="clipPath3417" clipPathUnits="userSpaceOnUse"><path id="path3419" d="m413.37 658.92h546.21v-325.23h-546.21v325.23z"/></clipPath><clipPath id="clipPath3437" clipPathUnits="userSpaceOnUse"><path id="path3439" d="m221.88 981.04h515.81v-318.66h-515.81v318.66z"/></clipPath><clipPath id="clipPath3457" clipPathUnits="userSpaceOnUse"><path id="path3459" d="m586.32 949.42h374.69v-615.81h-374.69v615.81z"/></clipPath><clipPath id="clipPath3477" clipPathUnits="userSpaceOnUse"><path id="path3479" d="m820.27 1351.1h492.69v-319.28h-492.69v319.28z"/></clipPath><clipPath id="clipPath3497" clipPathUnits="userSpaceOnUse"><path id="path3499" d="m627.31 1350.6h518.53v-319h-518.53v319z"/></clipPath><clipPath id="clipPath3517" clipPathUnits="userSpaceOnUse"><path id="path3519" d="m625.73 1683.2h515.81v-318.67h-515.81v318.67z"/></clipPath><clipPath id="clipPath3537" clipPathUnits="userSpaceOnUse"><path id="path3539" d="m1186.5 633.91h524.67v-316.84h-524.67v316.84z"/></clipPath><clipPath id="clipPath3557" clipPathUnits="userSpaceOnUse"><path id="path3559" d="m1030.9 633.41h514.51v-316.56h-514.51v316.56z"/></clipPath></defs><g id="g3379" transform="matrix(1.25,0,0,-1.25,0,2500)"><g id="g3381"><g id="g3383" clip-path="url(#clipPath3385)"><g id="g3389" transform="translate(1325.9 831.18)"><path id="path3391" d="m0 0c2.229-0.005 3.615-2.422 2.494-4.348l-26.233-45.076c-0.52-0.892-1.475-1.44-2.507-1.438l-51.886 0.107c-2.228 0.004-3.615 2.421-2.494 4.347l17.396 29.889-70.994 129.33-153.53-264.93c-6.566-11.331 1.608-25.52 14.704-25.523l311.15-0.064c6.064-0.001 11.671 3.229 14.712 8.477l156.82 270.6c6.567 11.331-1.607 25.521-14.704 25.523l-298.3 0.062 69.651-126.88" fill="#fecb33"/></g><g id="g3393"><g id="g3401"><g id="g3403" opacity="0" clip-path="url(#clipPath3397)"><g id="g3405" transform="translate(1325.9 831.18)"><path id="path3407" d="m0 0c2.229-0.005 3.615-2.422 2.494-4.348l-26.233-45.076c-0.52-0.892-1.475-1.44-2.507-1.438l-51.886 0.107c-2.228 0.004-3.615 2.421-2.494 4.347l17.396 29.889-70.994 129.33-153.53-264.93c-6.566-11.331 1.608-25.52 14.704-25.523l311.15-0.064c6.064-0.001 11.671 3.229 14.712 8.477l156.82 270.6c6.567 11.331-1.607 25.521-14.704 25.523l-298.3 0.062 69.651-126.88" stroke="#333333" stroke-miterlimit="10" stroke-width="14" fill="none"/></g></g></g></g><g id="g3409" transform="translate(776.56 595.02)"><path id="path3411" d="m0 0c-1.135-1.939-3.943-1.921-5.052 0.032l-25.731 45.304c-0.514 0.905-0.507 2.015 0.018 2.912l4.272 7.303-144.6 1.34c-6.332 0.058-12.215-3.165-15.438-8.459l-167.16-274.57c-6.96-11.432 1.444-25.904 15.119-26.031l337.34-2.166c6.333-0.06-4.237 3.013-1.015 8.308l172.76 273.5-152.25 3.725" fill="#fecb33"/></g><g id="g3413"><g id="g3421"><g id="g3423" opacity="0" clip-path="url(#clipPath3417)"><g id="g3425" transform="translate(776.56 595.02)"><path id="path3427" d="m0 0c-1.135-1.939-3.943-1.921-5.052 0.032l-25.731 45.304c-0.514 0.905-0.507 2.015 0.018 2.912l4.272 7.303-144.6 1.34c-6.332 0.058-12.215-3.165-15.438-8.459l-167.16-274.57c-6.96-11.432 1.444-25.904 15.119-26.031l337.34-2.166c6.333-0.06-4.237 3.013-1.015 8.308l172.76 273.5-152.25 3.725" stroke="#333333" stroke-miterlimit="10" stroke-width="14" fill="none"/></g></g></g></g><g id="g3429" transform="translate(713.53 973.97)"><path id="path3431" d="m0 0-310.83 0.064c-6.113 0.001-11.764-3.254-14.83-8.543l-156.66-270.33c-6.62-11.424 1.62-25.725 14.822-25.728l310.83-0.065c6.114-0.001 11.765 3.255 14.831 8.544l156.66 270.33c6.623 11.424-1.618 25.728-14.82 25.73" fill="#fecb33"/></g><g id="g3433"><g id="g3441"><g id="g3443" opacity="0" clip-path="url(#clipPath3437)"><g id="g3445" transform="translate(713.53 973.97)"><path id="path3447" d="m0 0-310.83 0.064c-6.113 0.001-11.764-3.254-14.83-8.543l-156.66-270.33c-6.62-11.424 1.62-25.725 14.822-25.728l310.83-0.065c6.114-0.001 11.765 3.255 14.831 8.544l156.66 270.33c6.623 11.424-1.618 25.728-14.82 25.73z" stroke="#333333" stroke-miterlimit="10" stroke-width="14" fill="none"/></g></g></g></g><g id="g3449" transform="translate(776.56 595.02)"><path id="path3451" d="m0 0c-1.135-1.939-3.943-1.921-5.052 0.032l-25.731 45.304c-0.514 0.905-0.507 2.015 0.018 2.912l26.17 44.741c1.135 1.94 3.943 1.921 5.053-0.032l15.825-27.865 155.92-3.818-158.76 277.22c-6.781 11.842-23.843 11.89-30.691 0.085l-163.6-282.02c-3.171-5.465-3.19-12.207-0.049-17.69l162.87-284.37c6.782-11.841 23.844-11.888 30.691-0.085l158.39 273.03-152.8 3.745" fill="#eaa536"/></g><g id="g3453"><g id="g3461"><g id="g3463" opacity="0" clip-path="url(#clipPath3457)"><g id="g3465" transform="translate(776.56 595.02)"><path id="path3467" d="m0 0c-1.135-1.939-3.943-1.921-5.052 0.032l-25.731 45.304c-0.514 0.905-0.507 2.015 0.018 2.912l26.17 44.741c1.135 1.94 3.943 1.921 5.053-0.032l15.825-27.865 155.92-3.818-158.76 277.22c-6.781 11.842-23.843 11.89-30.691 0.085l-163.6-282.02c-3.171-5.465-3.19-12.207-0.049-17.69l162.87-284.37c6.782-11.841 23.844-11.888 30.691-0.085l158.39 273.03-152.8 3.745" stroke="#333333" stroke-miterlimit="10" stroke-width="14" fill="none"/></g></g></g></g><g id="g3469" transform="translate(820.27 1038.9)"><path id="path3471" d="m0 0 306.96-0.012c6.169 0.013 11.872 3.243 14.993 8.493l161.38 271.4c6.72 11.303-1.709 25.416-15.163 25.389l-321.55-0.661c-6.169-0.012-11.871-3.243-14.993-8.493l-67.703-115.67 12.602-0.03c1.04-0.003 2.001-0.559 2.519-1.461l25.947-45.056c1.121-1.946-0.288-4.377-2.535-4.371l-31.786 0.081" fill="#eaa536"/></g><g id="g3473"><g id="g3481"><g id="g3483" opacity="0" clip-path="url(#clipPath3477)"><g id="g3485" transform="translate(820.27 1038.9)"><path id="path3487" d="m0 0 306.96-0.012c6.169 0.013 11.872 3.243 14.993 8.493l161.38 271.4c6.72 11.303-1.709 25.416-15.163 25.389l-321.55-0.661c-6.169-0.012-11.871-3.243-14.993-8.493l-67.703-115.67 12.602-0.03c1.04-0.003 2.001-0.559 2.519-1.461l25.947-45.056c1.121-1.946-0.288-4.377-2.535-4.371l-31.786 0.081" stroke="#333333" stroke-miterlimit="10" stroke-width="14" fill="none"/></g></g></g></g><g id="g3489" transform="translate(820.26 1038.9)"><path id="path3491" d="m0 0 301.21-0.223c13.353-0.01 21.701 14.448 15.017 26.006l-156.19 270.11c-3.095 5.352-8.808 8.651-14.991 8.655l-313.63 0.233c-13.352 0.01-21.7-14.447-15.016-26.006l152.89-264.39 70.833 129.89-18.386 31.93c-1.121 1.947 0.288 4.377 2.534 4.372l52.263-0.133c1.04-0.003 2.001-0.559 2.519-1.461l25.947-45.06c1.121-1.947-0.288-4.377-2.535-4.371l-31.786 0.081" fill="#fecb33"/></g><g id="g3493"><g id="g3501"><g id="g3503" opacity="0" clip-path="url(#clipPath3497)"><g id="g3505" transform="translate(820.26 1038.9)"><path id="path3507" d="m0 0 301.21-0.223c13.353-0.01 21.701 14.448 15.017 26.006l-156.19 270.11c-3.095 5.352-8.808 8.651-14.991 8.655l-313.63 0.233c-13.352 0.01-21.7-14.447-15.016-26.006l152.89-264.39 70.833 129.89-18.386 31.93c-1.121 1.947 0.288 4.377 2.534 4.372l52.263-0.133c1.04-0.003 2.001-0.559 2.519-1.461l25.947-45.06c1.121-1.947-0.288-4.377-2.535-4.371l-31.786 0.081" stroke="#333333" stroke-miterlimit="10" stroke-width="14" fill="none"/></g></g></g></g><g id="g3509" transform="translate(791.72 1667.6)"><path id="path3511" d="m0 0-156.66-270.33c-6.62-11.423 1.62-25.726 14.823-25.728l310.83-0.065c6.113-0.001 11.764 3.255 14.83 8.544l156.66 270.33c6.62 11.423-1.621 25.726-14.823 25.728l-310.83 0.065c-6.114 0.002-11.765-3.254-14.83-8.543" fill="#fecb33"/></g><g id="g3513"><g id="g3521"><g id="g3523" opacity="0" clip-path="url(#clipPath3517)"><g id="g3525" transform="translate(791.72 1667.6)"><path id="path3527" d="m0 0-156.66-270.33c-6.62-11.423 1.62-25.726 14.823-25.728l310.83-0.065c6.113-0.001 11.764 3.255 14.83 8.544l156.66 270.33c6.62 11.423-1.621 25.726-14.823 25.728l-310.83 0.065c-6.114 0.002-11.765-3.254-14.83-8.543z" stroke="#333333" stroke-miterlimit="10" stroke-width="14" fill="none"/></g></g></g></g><g id="g3529" transform="translate(1526.9 324.06)"><path id="path3531" d="m0 0c6.119 0.013 11.776 3.217 14.873 8.426l160.09 269.23c6.667 11.212-1.695 25.213-15.042 25.186l-318.98-0.656c-6.12-0.011-11.776-3.216-14.874-8.424l-156.93-268.31c-6.667-11.212 0.679-25.471 14.026-25.443l316.83-0.017z" fill="#eaa536"/></g><g id="g3533"><g id="g3541"><g id="g3543" opacity="0" clip-path="url(#clipPath3537)"><g id="g3545" transform="translate(1526.9 324.06)"><path id="path3547" d="m0 0c6.119 0.013 11.776 3.217 14.873 8.426l160.09 269.23c6.667 11.212-1.695 25.213-15.042 25.186l-318.98-0.656c-6.12-0.011-11.776-3.216-14.874-8.424l-156.93-268.31c-6.667-11.212 0.679-25.471 14.026-25.443l316.83-0.017z" stroke="#333333" stroke-miterlimit="10" stroke-width="14" fill="none"/></g></g></g></g><g id="g3549" transform="translate(1536.1 349.64)"><path id="path3551" d="m0 0-154.94 267.95c-3.072 5.31-8.739 8.582-14.872 8.587l-311.12 0.231c-13.247 0.009-21.528-14.332-14.897-25.799l154.94-267.95c3.071-5.31 8.737-8.581 14.871-8.586l311.12-0.231c13.251-0.012 21.532 14.33 14.9 25.797" fill="#fecb33"/></g><g id="g3553"><g id="g3561"><g id="g3563" opacity="0" clip-path="url(#clipPath3557)"><g id="g3565" transform="translate(1536.1 349.64)"><path id="path3567" d="m0 0-154.94 267.95c-3.072 5.31-8.739 8.582-14.872 8.587l-311.12 0.231c-13.247 0.009-21.528-14.332-14.897-25.799l154.94-267.95c3.071-5.31 8.737-8.581 14.871-8.586l311.12-0.231c13.251-0.012 21.532 14.33 14.9 25.797z" stroke="#333333" stroke-miterlimit="10" stroke-width="14" fill="none"/></g></g></g></g></g></g></g></svg>
